<svg xmlns="http://www.w3.org/2000/svg" viewBox="0 0 776.36 260.29"><defs><style>.cls-1{fill:#ed2472;}.cls-2{fill:#fff;}</style></defs><g id="Layer_2" data-name="Layer 2"><g id="Layer_1-2" data-name="Layer 1"><path class="cls-1" d="M359.88.74A1.8,1.8,0,0,0,358.41,0H330.19l-139,13.92a2.64,2.64,0,0,1-.83-.09l-.37-.09a33.84,33.84,0,0,0-9.4-2l-.37.09-.46-.09a33.73,33.73,0,0,0-9.5,2l-.46.09a2.58,2.58,0,0,1-.83.09L29.8,0H2.05A1.8,1.8,0,0,0,.57.74,1.69,1.69,0,0,0,0,2.31L6.93,47.12a2,2,0,0,0,2,1.75h14.2a1.73,1.73,0,0,1,2,1.75l6.27,60.3a1.69,1.69,0,0,0,2,1.75l7.93-.09a2,2,0,0,1,1.66.92,1.85,1.85,0,0,1,.18,1.94l-5.53,13a5.25,5.25,0,0,0-.46,1.75,5.7,5.7,0,0,0,.27,3.5,7.21,7.21,0,0,0,3.42,4l45,24.25q19.5,11.21,23,19.08a1.75,1.75,0,0,1,0,1.66,60.38,60.38,0,0,0-4.43,13.83c-1.38,7.1-.73,12.91,1.94,17.24,3,5.08,7.93,7.75,14.84,8.12h1.39c6.54,0,11.15-2.12,13.92-6.46,2.12-3.41,2.77-7.65,1.94-12.9A61.91,61.91,0,0,0,134,188.74a1.81,1.81,0,0,1,.37-2.21,1.85,1.85,0,0,1,2.12-.56c4.33,1.48,9,3.32,14.2,5.53,9.31,4,14.56,7.66,15.95,11.25q.69,1.94-1.39,6.36l-.83,1.76c-7.65,16.69-9.86,29.13-6.54,37.15,2.12,5,6.36,8.58,12.72,10.88a22.49,22.49,0,0,0,7.84,1.39,26,26,0,0,0,7.38-1.11l1.56-.46a29.89,29.89,0,0,0,6.64-2.67,13.9,13.9,0,0,0,6.18-6.64c3.23-7,1-18.72-6.55-35.22l-.09-.47-.37-.46-.09-.09a10.17,10.17,0,0,1-1.2-9c1.48-4.8,6.55-9,15.31-12.64,5.9-2.39,10.6-4.14,14.2-5.34a1.87,1.87,0,0,1,2.12.55,2,2,0,0,1,.37,2.12,60,60,0,0,0-4.52,13.74c-.83,5.16-.19,9.4,1.93,12.81,2.86,4.34,7.47,6.46,14,6.46h1.38c6.92-.37,11.8-3,14.85-8.12,2.58-4.33,3.22-10.14,1.93-17.24a60.33,60.33,0,0,0-4.42-13.83A1.78,1.78,0,0,1,249,181q3.6-7.87,23-19.08L317,137.66a7.52,7.52,0,0,0,3.41-4,7.69,7.69,0,0,0,.28-3.5,9.72,9.72,0,0,0-.46-1.75l-6.09-14.11a1.86,1.86,0,0,1,.19-1.84,1.73,1.73,0,0,1,1.47-1l9.13-.83a2,2,0,0,0,1.84-1.75L335.27,52A1.74,1.74,0,0,1,337,50.34L350.57,49a1.88,1.88,0,0,0,1.84-1.66l7.93-44.9A1.79,1.79,0,0,0,359.88.74ZM188,54.86,200.1,84.09a1.86,1.86,0,0,1-.83,2.4L180.09,99a1.94,1.94,0,0,1-2.21,0L160.36,87.68a1.75,1.75,0,0,1-.74-2.48l12.17-29.79a1.67,1.67,0,0,1,.46-.64,42.42,42.42,0,0,1,7.19-5.44,2,2,0,0,1,2.22,0,44.29,44.29,0,0,1,6,4.89A4,4,0,0,0,188,54.86ZM42.8,22.87A1.91,1.91,0,0,0,41,22.68l-15.4,5.07a2.81,2.81,0,0,1-1.75-.27,1.94,1.94,0,0,1-.93-1.39l-.64-5a1.73,1.73,0,0,1,1.47-2.21l6.09-1.66a2.35,2.35,0,0,1,.74-.09L170.13,32.09a2.13,2.13,0,0,0,.74-.1l1.66-.46a23.37,23.37,0,0,1,6.18-.83,27.69,27.69,0,0,1,4.61.46h-3.14c-10,0-17.7,3.32-23.33,10.05l-.73.93a4.32,4.32,0,0,0-.37.64L144.87,74.5a2.25,2.25,0,0,1-1.29,1.29,2.34,2.34,0,0,1-1.75-.18L85,38.54a7.24,7.24,0,0,0-3.87-1.11,6.6,6.6,0,0,0-6.64,4.43l-22,52a2,2,0,0,1-2.12,1.2,1.77,1.77,0,0,1-1.75-1.84l-5-68.79A2.38,2.38,0,0,0,42.8,22.87Zm295.05-1.76-.65,4.34a2.09,2.09,0,0,1-1,1.47,2,2,0,0,1-1.75.1l-10.88-4.25a1.74,1.74,0,0,0-1.76.19,1.93,1.93,0,0,0-1,1.47l-8.94,68.79A2,2,0,0,1,310,95l-2.4.28a1.85,1.85,0,0,1-2-1.2L283.45,41.86a6.8,6.8,0,0,0-6.73-4.43,7.25,7.25,0,0,0-3.88,1.11l-55,35.87a2,2,0,0,1-1.75.27,2.17,2.17,0,0,1-1.29-1.29L204.25,42.78a3.58,3.58,0,0,1-.28-.64l-.83-.93a28.48,28.48,0,0,0-6.09-5.53,1.91,1.91,0,0,1-.92-2.12A1.87,1.87,0,0,1,197.88,32L329.46,17.15a2,2,0,0,1,.73.09l6.09,1.66A1.85,1.85,0,0,1,337.85,21.11Z"/><path class="cls-1" d="M766.86,51.73q-6.5-3-16.59-3H728.88c-7.1-.09-13.19,1-18.17,3.32q-10.1,4.43-11.62,13.28l-3.5,20.1-.18,2A9.79,9.79,0,0,0,695.5,89c.55,5.25,3.69,9.12,9.5,11.8a27,27,0,0,0,6.36,2.12l-22.5,10.88a14.55,14.55,0,0,0-4.06-7.93,14.12,14.12,0,0,0-2.67-2.12,18.48,18.48,0,0,0,6.18-3.6,18.14,18.14,0,0,0,6.45-11.06V89l4.15-23.24a13.94,13.94,0,0,0,.28-2.86,15.08,15.08,0,0,0-4.43-10.69A14,14,0,0,0,684,47.85a19.12,19.12,0,0,0-18.44,15.68l-4,23a21.37,21.37,0,0,0-.37,2.49v.64a15,15,0,0,0,4.33,10.79,20.79,20.79,0,0,0,2.67,2,21.39,21.39,0,0,0-6.26,3.59,17.85,17.85,0,0,0-4.34,5.26,10.32,10.32,0,0,0-2.21-5.35,9.57,9.57,0,0,0-7.84-3.69h-3.23a35,35,0,0,0,5.08-1.75c5.9-2.67,9.58-6.45,11.15-11.52.09-.56.28-1.11.37-1.76l3.41-19.45a11.92,11.92,0,0,0,.28-2.58c0-6.09-3.14-10.61-9.5-13.46-4.33-2-10-3-16.69-3h-34.2c-5.44-.09-9.59,1.29-12.36,4a10.86,10.86,0,0,0-3.41,6.27L583.1,89l-.46,2.39a9.63,9.63,0,0,0,2,8.21c2.21,2.67,5.72,4.06,10.61,4.33a28.79,28.79,0,0,0-5.17,1.75c-6.73,3-10.69,7.47-11.71,13.47l-1.93,11.06L575,138.76a12,12,0,0,0-.28,2.59c0,6.08,3.23,10.6,9.59,13.46a29.52,29.52,0,0,0,4.52,1.66,37.38,37.38,0,0,0-10.6,2.95,20.25,20.25,0,0,0-8.21,6,10.12,10.12,0,0,0-2.3-5.81,9.91,9.91,0,0,0-4.06-2.95,20.47,20.47,0,0,0,3.6-2.49,19.17,19.17,0,0,0,6.54-11.06L576,130.19h0l1.57-8.67a24.84,24.84,0,0,0,.19-2.67c0-6.09-3.14-10.6-9.5-13.46a34.29,34.29,0,0,0-6.92-2.22,41.45,41.45,0,0,0,9.23-2.67c6-2.67,9.68-6.55,11.15-11.52.09-.56.28-1.11.37-1.76l3.78-21.48a18.81,18.81,0,0,0,.28-2.86,14.59,14.59,0,0,0-4.34-10.69,14.18,14.18,0,0,0-10.88-4.34,19.36,19.36,0,0,0-18.44,15.68L549.36,81.6l-.37.28a4.09,4.09,0,0,1-2.4.64h-7.37l2.95-16.78c.09-.83.18-1.84.27-2.86a15,15,0,0,0-4.33-10.69,14.21,14.21,0,0,0-10.88-4.34,19.07,19.07,0,0,0-17.33,11.9,9.79,9.79,0,0,0-2.22-7.47,9.61,9.61,0,0,0-7.83-3.6h-56a10.35,10.35,0,0,0-7.28,2.68,10.52,10.52,0,0,0-3.51,5.07,11,11,0,0,0-1.84-4.06,9.51,9.51,0,0,0-7.93-3.69H384.78q-10.93-.13-18.26,3.32-10.09,4.43-11.62,13.28L354.44,68a10.84,10.84,0,0,0-.27,2.59c0,5.07,2.39,9,7.1,12.07a10.72,10.72,0,0,0-7.2,2.77,9.56,9.56,0,0,0-2.85,3.6,12.13,12.13,0,0,0-1,3.22,9.8,9.8,0,0,0,2,7.93,9.66,9.66,0,0,0,7.84,3.78h3a37,37,0,0,0-5.07,1.75c-6.73,3-10.7,7.47-11.71,13.47l-1.94,11.06-1.47,8.57a12.72,12.72,0,0,0-.28,2.59c0,6.08,3.23,10.6,9.59,13.46a27.66,27.66,0,0,0,5.9,2,37.88,37.88,0,0,0-8.3,2.58q-9.25,4-11.34,11.89c-.09.46-.18,1-.27,1.48l-3.88,21.66a14,14,0,0,0-.27,2.86,14.94,14.94,0,0,0,15.21,15.12,18.24,18.24,0,0,0,12.08-4.51,21.35,21.35,0,0,0,5.16-6.83h17.7q10.65,0,18.26-3.32A20.74,20.74,0,0,0,412,190l-.74,4.42a9.45,9.45,0,0,0-.18,2.86,14.23,14.23,0,0,0,4.33,10.79,15,15,0,0,0,10.88,4.33,18.09,18.09,0,0,0,12-4.61,20,20,0,0,0,4.88-6,14.7,14.7,0,0,0,6.73,1.57,16.94,16.94,0,0,0,6.09-1.11,16.09,16.09,0,0,0,3.59,5.81,15,15,0,0,0,10.88,4.33A19.1,19.1,0,0,0,489,196.76l3.78-21.58a14.9,14.9,0,0,0,.27-2.67V172a7.57,7.57,0,0,0,1.2,1.75A9.8,9.8,0,0,0,502,177.4h10l-2.95,17a17.92,17.92,0,0,0-.28,2.95,14.65,14.65,0,0,0,4.43,10.79,14.84,14.84,0,0,0,10.88,4.33,19.36,19.36,0,0,0,18.53-15.67L546,177.4h12.45a11.32,11.32,0,0,0,7.46-2.77l.37-.46-3.22,18.26a12.55,12.55,0,0,0-.28,2.58q0,9.12,9.68,13.55c4.33,2,10,3,16.69,3h39.09a11.58,11.58,0,0,0,11.25-9.4,9.72,9.72,0,0,0-2.12-8.3,9.27,9.27,0,0,0-7.74-3.69H597.49l2-11.8L600,178a3.49,3.49,0,0,1,2.39-.64h31.91a11.26,11.26,0,0,0,7.37-2.77,10.46,10.46,0,0,0,3.88-6.73,9.91,9.91,0,0,0-2-8.3,17,17,0,0,0-1.94-1.75,11.53,11.53,0,0,0,5.9-2.67,11.39,11.39,0,0,0,4-6.64l.09-.83a13.68,13.68,0,0,0,6,8.48,20.93,20.93,0,0,0-6,3.5,18.36,18.36,0,0,0-6.46,11.16l-.09.46-4.05,22.87a8.81,8.81,0,0,0-.28,3.13A14.27,14.27,0,0,0,645,208.1a15,15,0,0,0,10.88,4.33,18.24,18.24,0,0,0,12.08-4.51,18.94,18.94,0,0,0,6.55-11.16l.37-2.21h10.23a7,7,0,0,0-.28,2.76,13.76,13.76,0,0,0,4.43,10.79,14.87,14.87,0,0,0,10.88,4.33,18,18,0,0,0,12-4.51,18.4,18.4,0,0,0,6.45-11.16l4.24-23.6a12.89,12.89,0,0,0,.19-1.85,4.23,4.23,0,0,0,.09-1,15.09,15.09,0,0,0-4.43-10.79,11.05,11.05,0,0,0-2.4-1.94,16.11,16.11,0,0,0,5.17-4.88,12.8,12.8,0,0,0,2.39-7.38,11,11,0,0,0-5.8-10l-7.66-4.61,1.11-.55,10-5.07c5.35-2.68,8-6.64,8-12.08a15.57,15.57,0,0,0-.46-3.5l-.09-.19a11,11,0,0,0-3.32-5.44h17.33c7.1,0,13.19-1.1,18.26-3.41,6-2.67,9.68-6.55,11.15-11.52a9.25,9.25,0,0,0,.46-1.76l3.32-19.45a14.16,14.16,0,0,0,.28-2.58C776.36,59.1,773.23,54.58,766.86,51.73ZM496,158.77a10.73,10.73,0,0,0-3.87,6.64,7.3,7.3,0,0,0-.18,1.75c-1.48-3.5-4.34-6.17-8.49-8.11a29.46,29.46,0,0,0-2.76-1.11h8.11a11.31,11.31,0,0,0,7.38-2.76,24.12,24.12,0,0,0,2.4-2.77,11.65,11.65,0,0,0,1.65,2,11.36,11.36,0,0,0,1.94,1.57A11.47,11.47,0,0,0,496,158.77Zm15.49-53.11c-6.73,3-10.6,7.47-11.61,13.37l-1.94,11.16-1.48,8.48a10.29,10.29,0,0,0-6.27-2.12H458l1.1-6.36,1.75-10.42a20.48,20.48,0,0,0,.47-3.13,15.21,15.21,0,0,0-4.52-10.88A15,15,0,0,0,446,101.42,18.18,18.18,0,0,0,433.92,106a17.93,17.93,0,0,0-6.45,11.16l-2.31,13-1.57,8.57a13.42,13.42,0,0,0-.27,2.59c0,6.08,3.23,10.6,9.59,13.46a32.09,32.09,0,0,0,4.42,1.66,40.87,40.87,0,0,0-10.69,2.95q-8.16,3.6-10.79,10.51c-.92-4.89-4.06-8.48-9.31-10.88a26,26,0,0,0-5.9-1.94,40.91,40.91,0,0,0,8.29-2.58Q419,150,420.55,141.25l.56-2.95v-.18c.09-.74.09-1.48.18-2.21a17.09,17.09,0,0,0-.92-4.71,9.44,9.44,0,0,1,.74-1,19,19,0,0,0,2.48-6l.47-2.68a14.9,14.9,0,0,0,.27-2.67c0-6.09-3.22-10.6-9.59-13.46a30.85,30.85,0,0,0-6.91-2.22A41.58,41.58,0,0,0,417,100.5c6-2.67,9.68-6.45,11.15-11.52a9.25,9.25,0,0,0,.46-1.76l.37-2.58a11.34,11.34,0,0,0,.28-2.58c0-5.07-2.31-9.13-7-12.08a11.62,11.62,0,0,0,7.19-2.76,11.33,11.33,0,0,0,3.32-5,9.41,9.41,0,0,0,2,4.05A9.8,9.8,0,0,0,442.5,70h9.95L449.5,86.76q-.13,1-.27,2.22v.64a14.9,14.9,0,0,0,4.33,10.7,15.36,15.36,0,0,0,10.88,4.42,18.32,18.32,0,0,0,12-4.61,19,19,0,0,0,6.45-11.06V89l3.32-19h12.36a10.91,10.91,0,0,0,7.28-2.76,14.19,14.19,0,0,0,3-3.69l-3.87,21.85a13.81,13.81,0,0,0-.1,2,8.82,8.82,0,0,0,.1,1.57c.55,5.25,3.69,9.12,9.49,11.8A30.3,30.3,0,0,0,521,103,41.23,41.23,0,0,0,511.46,105.66Zm9.22,50.25c1-.73,1.85-1.29,2.4-1.75a20.34,20.34,0,0,0,4.8-6.08,14.13,14.13,0,0,0,6.82,1.66,16.85,16.85,0,0,0,6.08-1.11,12.94,12.94,0,0,0,3.6,5.81,11.4,11.4,0,0,0,1.84,1.47ZM620.17,70h10l-2.22,12.36a20.16,20.16,0,0,1-2.58.18H618Zm32.92,60.21-1.85,10.6a10.32,10.32,0,0,0-.27,2.4,12.27,12.27,0,0,0-1.66-3,9.75,9.75,0,0,0-7.84-3.6H609.29l1.11-6.36.92-5.44.46-.37a4.18,4.18,0,0,1,2.49-.74h31.81a11.3,11.3,0,0,0,7.37-2.76c.65-.56,1.11-1.11,1.57-1.57Zm42.59,29.5a18.4,18.4,0,0,0-6.45,11.16l-.09.46-.37,1.75H678.63a12.68,12.68,0,0,0,.18-1.75,3.48,3.48,0,0,1,.09-1,15.09,15.09,0,0,0-4.42-10.79,12.13,12.13,0,0,0-2.22-1.75,20.25,20.25,0,0,0,6.09-3.6,18.26,18.26,0,0,0,5.72-8.39l17.7,10.42A20.68,20.68,0,0,0,695.68,159.69ZM739.94,81.6l-.28.28a4.54,4.54,0,0,1-2.49.64h-7.28l1.94-11.62.37-.18a4.6,4.6,0,0,1,2.48-.74H742Z"/><path class="cls-2" d="M274.51,41.86c-.1-.37-.37-.46-.65-.18L210.52,82.89a1.64,1.64,0,0,0-.74,2l7.47,21.39a1.51,1.51,0,0,0,1.66,1.2l78-7.38a1.78,1.78,0,0,0,1.29-.83,1.56,1.56,0,0,0,.09-1.57L274.51,41.86Z"/><path class="cls-2" d="M144.5,86a1.61,1.61,0,0,0-.64-2L78.76,41.68c-.28-.28-.46-.19-.64.18L54.42,97.64a1.72,1.72,0,0,0,.09,1.48,1.8,1.8,0,0,0,1.29.83l79.94,7.56a1.54,1.54,0,0,0,1.75-1.2l7-20.28Z"/><path class="cls-2" d="M41.42,128.44c-.09.27-.09.46.18.55l45.09,24.25c13.37,7.75,21.85,14.84,25.26,21.21q2.49,4.7,1.11,7.19l-1.94,4.7a50.09,50.09,0,0,0-2.85,10.33c-1.48,10.05,2.12,15.3,10.69,15.76s11.9-4,10-12.9a59.38,59.38,0,0,0-3.78-10.88c-2-4.34-3.32-7.2-3.78-8.49-1.57-4.15-.28-6.08,3.87-5.9q6.64.28,25.45,8.3c12.08,5.16,18.72,10.7,20.1,16.6a11.91,11.91,0,0,1-.46,6.64c-.46,1.29-1.29,3-2.31,5.16-6.17,13.37-8.57,23.14-7.19,29.5.92,4.15,3.78,7.2,8.67,9.13a17.75,17.75,0,0,0,12,.28c3.14-1,5.08-1.66,5.81-1.94a8.46,8.46,0,0,0,4.34-4.42c1.93-5.26-.28-14.94-6.73-29l-.1-.18a17.4,17.4,0,0,1-2.67-11.9c1-8.2,7.65-14.75,19.92-19.82,12.63-5.25,21.2-7.93,25.54-8.11,4-.28,5.25,1.66,3.78,5.71-.47,1.29-1.76,4.15-3.78,8.49a58.63,58.63,0,0,0-3.78,10.88c-2,8.94,1.29,13.27,9.95,12.9s12.08-5.71,10.7-15.76a50.16,50.16,0,0,0-2.86-10.33l-1.94-4.7a3.47,3.47,0,0,1-.46-1.85,9.75,9.75,0,0,1,1.57-5.34c3.41-6.37,11.8-13.46,25.26-21.21L311.11,129c.28-.09.28-.28.19-.55l-10.24-24.07a1.38,1.38,0,0,0-1.66-1l-82.8,7.74a1.52,1.52,0,0,1-1.75-1.1L207.2,87.59a1.38,1.38,0,0,0-1.11-1,1.5,1.5,0,0,0-1.38.18l-21.48,13.93a1.42,1.42,0,0,0-.46,2.3l2.12,3.5a1.59,1.59,0,0,1-.28,2.12,1.55,1.55,0,0,1-2,.19L149.76,87.87a1.71,1.71,0,0,0-1.48-.19,1.19,1.19,0,0,0-1,1L139.89,110a1.52,1.52,0,0,1-1.75,1.1l-84.73-8a1.57,1.57,0,0,0-1.76,1L41.42,128.44Z"/><path class="cls-2" d="M190.88,48l.28.46,14.47,35.22a2.35,2.35,0,0,0,1.11,1,1.69,1.69,0,0,0,1.47-.18l.1-.09a1.61,1.61,0,0,0,.64-2L195.49,43.06l-.19-.19a20.07,20.07,0,0,0-16-7.65h-.74a27.1,27.1,0,0,0-7.56.83,20.91,20.91,0,0,0-11.52,6.82l-.19.19L145.33,83.44a1.64,1.64,0,0,0,.74,2l.09.09a2,2,0,0,0,1.48.19,1.81,1.81,0,0,0,1-1L163.4,49c.1-.09.19-.28.37-.46,3.23-3.6,7.93-7.1,14.2-10.33.46,0,2,.92,4.89,2.86a44.33,44.33,0,0,1,8,6.92Z"/><path class="cls-2" d="M349.28,4.7A1.54,1.54,0,0,0,348,4.15H328L187.74,18.07c-.09.09-.27.09-.55,0-1.75-.55-3.32-1-4.52-1.38a17.1,17.1,0,0,0-5.16-.83,18.07,18.07,0,0,0-5.26.83,42.4,42.4,0,0,1-4.79,1.38c-.09.09-.28.09-.55,0L26.76,4.15H6.94a1.8,1.8,0,0,0-1.29.55,1.73,1.73,0,0,0-.37,1.39L10.16,37.9a1.55,1.55,0,0,0,1.66,1.47H26.94a1.52,1.52,0,0,1,1.66,1.57l6.27,60.67a1.61,1.61,0,0,0,1.76,1.56L51.1,103a1.59,1.59,0,0,0,1.48-1l.09-.1a1.6,1.6,0,0,0-.09-1.56,1.81,1.81,0,0,0-1.39-.83l-10-.93A1.54,1.54,0,0,1,39.58,97L34.87,30.52a1.54,1.54,0,0,0-.73-1.29A1.5,1.5,0,0,0,32.66,29L16.89,34.12a1.5,1.5,0,0,1-1.38-.19,1.62,1.62,0,0,1-.83-1.2L12,13.09a1.52,1.52,0,0,1,1.2-1.84l13.46-3.6a1.38,1.38,0,0,1,.64-.09L166.91,22.5c.27,0,.55,0,.64-.09a31,31,0,0,1,19,.73l.36.1a1.88,1.88,0,0,0,.74.09L327.43,7.56a1.42,1.42,0,0,1,.65.09l13.37,3.6a1.52,1.52,0,0,1,1.29,1.84l-2.68,19.55a1.64,1.64,0,0,1-.83,1.2,1.4,1.4,0,0,1-1.47.09l-11.62-4.52a1.71,1.71,0,0,0-1.48.19,1.63,1.63,0,0,0-.83,1.2l-8.57,66.29a1.6,1.6,0,0,1-1.57,1.47l-12.26,1.11a1.8,1.8,0,0,0-1.29.83,1.83,1.83,0,0,0-.09,1.57,1.61,1.61,0,0,0,1.75,1l14.84-1.38a1.52,1.52,0,0,0,1.48-1.48l8.57-57.35a1.59,1.59,0,0,1,1.48-1.47L342.37,40a1.67,1.67,0,0,0,1.56-1.39l5.72-32.54a1.49,1.49,0,0,0-.37-1.39Z"/><path class="cls-2" d="M374.27,105.66c-6.18,0-11.43.93-15.58,2.86-4.52,1.94-7.19,4.7-7.84,8.3l-3.41,19.73a10.33,10.33,0,0,0-.19,1.38c0,3.14,1.94,5.63,5.72,7.38,3.41,1.66,8.11,2.49,13.92,2.49h21.49c6.17,0,11.43-.92,15.67-2.86,4.52-2,7.1-4.79,7.75-8.39l.46-2.67a5.49,5.49,0,0,0,.09-1.39,6.81,6.81,0,0,0-3.14-5.71c3.23-1.94,5.07-4.43,5.63-7.29l.46-2.67a7.12,7.12,0,0,0,.09-1.38c0-3.14-1.84-5.53-5.62-7.29-3.51-1.66-8.21-2.49-14-2.49Zm-5.53,25h15.58c5.53,0,8,1.57,7.56,4.61s-3.6,4.7-9.22,4.7h-7.28c-5.63,0-8.12-1.56-7.56-4.7l.92-4.61Zm1.38-7.84.74-4.7c.55-3,3.59-4.61,9.22-4.61h7.19c5.62,0,8.11,1.57,7.56,4.61s-3.5,4.7-9.13,4.7Z"/><path class="cls-2" d="M448.86,134.34v-.83L452.09,115a5.55,5.55,0,0,0,.27-1.76,8.23,8.23,0,0,0-2.39-6,8.63,8.63,0,0,0-6.18-2.4,11.51,11.51,0,0,0-7.56,3A11.68,11.68,0,0,0,432,115l-3.87,21.57a8.46,8.46,0,0,0-.1,1.38c0,3.14,1.85,5.63,5.63,7.38,3.5,1.66,8.11,2.49,13.92,2.49h39.09a4.33,4.33,0,0,0,2.95-1.2,6.14,6.14,0,0,0,1.66-2.76,3.13,3.13,0,0,0-3.22-3.88H456.14a8.68,8.68,0,0,1-5.25-1.56,5,5,0,0,1-2-4.06Z"/><path class="cls-2" d="M568.72,116.82a6.55,6.55,0,0,0,.19-1.38c0-3.14-1.85-5.53-5.63-7.29-3.5-1.66-8.11-2.49-13.92-2.49H527.79c-6.18,0-11.35.93-15.68,2.86-4.52,1.94-7,4.7-7.65,8.3l-3.87,21.67a12,12,0,0,0-.1,1.75,8.06,8.06,0,0,0,8.39,8.3,11.61,11.61,0,0,0,7.66-2.95,11.73,11.73,0,0,0,4.24-7.19L524.1,120a6.63,6.63,0,0,1,3.22-4.61,11.38,11.38,0,0,1,6.27-1.85h7.2a8.61,8.61,0,0,1,5.25,1.57,4.74,4.74,0,0,1,2,4,2.43,2.43,0,0,1-.09.93l-3.23,18.44a10.77,10.77,0,0,0-.09,1.75,8.23,8.23,0,0,0,2.4,6.08,8.1,8.1,0,0,0,6,2.31,11.56,11.56,0,0,0,7.65-2.95,11.72,11.72,0,0,0,4.24-7.1l3.78-21.67Z"/><path class="cls-2" d="M535.62,122.35a9.79,9.79,0,0,0-7.1,3.05,9.66,9.66,0,0,0-3.13,7.09,6.81,6.81,0,0,0,2,5.08,7,7,0,0,0,5.16,1.93,9.78,9.78,0,0,0,7.1-3,9.63,9.63,0,0,0,3.13-7,7,7,0,0,0-2-5.07,6.77,6.77,0,0,0-5.17-2Z"/><path class="cls-2" d="M600.16,134.34l.1-.92,2.3-13.46a7.58,7.58,0,0,1,3.32-4.61,11.36,11.36,0,0,1,6.27-1.85H644a4,4,0,0,0,2.95-1.2,4.35,4.35,0,0,0,1.66-2.76,3,3,0,0,0-.64-2.77,3.23,3.23,0,0,0-2.59-1.11h-39c-6.18,0-11.43.93-15.58,2.86-4.61,1.94-7.19,4.7-7.84,8.3l-3.41,19.73a7.25,7.25,0,0,0-.18,1.38c0,3.23,1.93,5.63,5.71,7.38q5.26,2.49,13.83,2.49H638a4,4,0,0,0,2.95-1.2,4.94,4.94,0,0,0,1.66-2.76,3.14,3.14,0,0,0-3.23-3.88H607.54a8.24,8.24,0,0,1-5.35-1.66,4.73,4.73,0,0,1-2-4Z"/><path class="cls-2" d="M683.33,119.59a13.13,13.13,0,0,0-4.61,3.22L680.1,115a10.93,10.93,0,0,0,.1-1.85,7.93,7.93,0,0,0-2.31-5.9,8.27,8.27,0,0,0-6.08-2.4,11.78,11.78,0,0,0-7.66,3,12.15,12.15,0,0,0-4.24,7.2l-4.15,23.51a16.7,16.7,0,0,0-.18,1.75,8.07,8.07,0,0,0,8.57,8.3,12.4,12.4,0,0,0,11.8-10l1.39-7.93a9.39,9.39,0,0,0,3.5,3.32l24.43,14.29a5.67,5.67,0,0,0,2.77.74c2.31,0,4.15-1.11,5.63-3.41a6.29,6.29,0,0,0,1.19-3.6,4.47,4.47,0,0,0-2.49-4.15l-13.73-8.39a2.45,2.45,0,0,1-1.2-2.58,4.11,4.11,0,0,1,2.21-2.77l16.6-8.39c2.86-1.38,4.33-3.41,4.33-6.08a4.34,4.34,0,0,0-.28-1.66,4.19,4.19,0,0,0-4.42-3.32,7.19,7.19,0,0,0-3,.74l-29.51,14.29Z"/><path class="cls-2" d="M419.82,59.75a4.4,4.4,0,0,0,3-1.11,4.71,4.71,0,0,0,1.57-2.77,3.32,3.32,0,0,0-.65-2.76A3.2,3.2,0,0,0,421.2,52H382.66c-6.27,0-11.43.92-15.58,2.86-4.52,1.94-7,4.7-7.66,8.21L359,65.74a7.12,7.12,0,0,0-.09,1.38c0,3,1.85,5.44,5.53,7.2,3.51,1.56,8.12,2.39,13.83,2.39h14.3c5.44,0,7.92,1.57,7.46,4.61s-3.59,4.61-9.12,4.61H359.33a4.65,4.65,0,0,0-4.52,3.88,2.89,2.89,0,0,0,.56,2.76A3.2,3.2,0,0,0,358,93.68h38.63a38.66,38.66,0,0,0,15.49-2.77c4.52-2,7-4.79,7.65-8.3l.47-2.58a9.7,9.7,0,0,0,.18-1.38c0-3.14-1.84-5.53-5.62-7.29-3.42-1.56-8-2.39-13.83-2.39h-14.2c-5.54,0-8-1.57-7.47-4.61s3.59-4.61,9-4.61Z"/><path class="cls-2" d="M496.44,59.75a4.29,4.29,0,0,0,2.86-1.11A4.85,4.85,0,0,0,501,55.87a3.31,3.31,0,0,0-.64-2.76A3.22,3.22,0,0,0,497.73,52h-56a4.7,4.7,0,0,0-2.95,1.11,5.32,5.32,0,0,0-1.57,2.76,3.19,3.19,0,0,0,.65,2.77,3.14,3.14,0,0,0,2.49,1.11h18L454,84.46a10.77,10.77,0,0,0-.09,1.75,7.91,7.91,0,0,0,2.31,5.9,8.23,8.23,0,0,0,6.08,2.4A12.43,12.43,0,0,0,474,84.46l4.43-24.71Z"/><path class="cls-2" d="M568.82,51.17a12.43,12.43,0,0,0-11.71,10l-3.23,18.35a6.72,6.72,0,0,1-3.23,4.52,11,11,0,0,1-6.18,1.84h-7.19a8.21,8.21,0,0,1-5.16-1.56,4.85,4.85,0,0,1-2.12-4,2.75,2.75,0,0,1,.18-.83l3.14-18.35a14.43,14.43,0,0,0,.18-1.75,8.14,8.14,0,0,0-2.4-5.9,8,8,0,0,0-6-2.4,12.43,12.43,0,0,0-11.71,10l-3.87,21.39V84q0,4.69,5.53,7.19,5.12,2.49,13.83,2.49h21.3c6.09,0,11.25-.92,15.4-2.77q6.78-3,7.74-8.3l3.78-21.39a13.38,13.38,0,0,0,.1-1.75,8.07,8.07,0,0,0-2.31-5.9,8.25,8.25,0,0,0-6.08-2.4Z"/><path class="cls-2" d="M655.49,63.07a7.22,7.22,0,0,0,.09-1.39q0-4.69-5.53-7.19Q644.79,52,636.22,52H602c-5.44,0-8.48,1.57-9,4.61l-5.71,32.55c-.56,3,1.93,4.52,7.46,4.52h34.21c6.18,0,11.25-.92,15.4-2.77q6.78-3,7.74-8.3l3.42-19.54Zm-43.8.55A4.38,4.38,0,0,1,613.35,61a4,4,0,0,1,2.86-1.2h11.62c5.53,0,8,1.56,7.46,4.61l-3,17c-.46,3.05-3.5,4.61-9,4.61H611.69a3,3,0,0,1-2.58-1.1,3.22,3.22,0,0,1-.74-2.77l3.32-18.44Z"/><path class="cls-2" d="M681.86,51.17a12.4,12.4,0,0,0-11.71,10L666,84.46a11.51,11.51,0,0,0-.19,1.75,8.2,8.2,0,0,0,8.39,8.3,11.78,11.78,0,0,0,7.66-3,11.62,11.62,0,0,0,4.14-7.1l4.06-23.24a12.94,12.94,0,0,0,.19-1.75,8.07,8.07,0,0,0-2.31-5.9,8.27,8.27,0,0,0-6.08-2.4Z"/><path class="cls-2" d="M767.33,63.07c.09-.65.18-1.11.18-1.39,0-3.13-1.84-5.53-5.62-7.19Q756.78,52,748.06,52h-21.3c-6.18,0-11.25.92-15.4,2.86-4.52,1.94-7,4.7-7.65,8.21L700.2,82.61,700.11,84c0,3.13,1.85,5.53,5.63,7.19,3.41,1.66,8,2.49,13.73,2.49h21.3a38.66,38.66,0,0,0,15.49-2.77c4.52-2,7-4.79,7.66-8.3l3.41-19.54ZM723.07,66.2a6.68,6.68,0,0,1,3.23-4.61,10.9,10.9,0,0,1,6.27-1.84h7.19a8.31,8.31,0,0,1,5.07,1.56,4.76,4.76,0,0,1,2,4l-.09.92-2.31,13.28a6.85,6.85,0,0,1-3.13,4.61,11.37,11.37,0,0,1-6.27,1.84h-7.2a8.4,8.4,0,0,1-5.16-1.56,4.76,4.76,0,0,1-2-4,3.2,3.2,0,0,1,.09-.92l2.31-13.28Z"/><path class="cls-2" d="M401.56,161.82c-3.5-1.66-8.11-2.49-13.92-2.49H366.06c-6.17,0-11.43.92-15.58,2.85q-6.78,3-7.74,8.3l-3.88,21.67a13.37,13.37,0,0,0-.09,1.75,8.17,8.17,0,0,0,2.4,6,8,8,0,0,0,6,2.4,11.51,11.51,0,0,0,7.65-2.95,12.8,12.8,0,0,0,4.25-7.19l.27-1.29h22.78c6.17,0,11.43-.92,15.58-2.77q6.78-2.9,7.74-8.3l1.57-9.31a7.27,7.27,0,0,0,.19-1.38c0-3.14-1.85-5.53-5.63-7.28Zm-15.21,11v.83l-.56,2.95a7.06,7.06,0,0,1-3.22,4.61A11.37,11.37,0,0,1,376.3,183h-7.19a8.64,8.64,0,0,1-5.26-1.57,4.94,4.94,0,0,1-2.12-4l.09-.92.56-2.95A7.06,7.06,0,0,1,365.6,169a11.38,11.38,0,0,1,6.27-1.85h7.29a8.22,8.22,0,0,1,5.16,1.57,5,5,0,0,1,2,4.06Z"/><path class="cls-2" d="M464.54,159.33H443.05c-6.18,0-11.43.92-15.67,2.85q-6.78,2.91-7.75,8.3l-3.78,21.67a9.53,9.53,0,0,0-.18,1.75,8.21,8.21,0,0,0,8.48,8.39,11.34,11.34,0,0,0,7.65-3,11.56,11.56,0,0,0,4.15-7.1l3.32-18.53A7.08,7.08,0,0,1,442.5,169a11.33,11.33,0,0,1,6.27-1.85H456a8.36,8.36,0,0,1,5.26,1.57,4.83,4.83,0,0,1,2.12,4l-.1.92L460,192.15a13,13,0,0,0-.19,1.75,8.17,8.17,0,0,0,2.4,6,8.27,8.27,0,0,0,6.09,2.4,11.73,11.73,0,0,0,7.65-2.95,12.06,12.06,0,0,0,4.15-7.19L484,170.48a9.24,9.24,0,0,0,.09-1.38c0-3.14-1.84-5.53-5.62-7.28-3.51-1.66-8.12-2.49-13.92-2.49Z"/><path class="cls-2" d="M458,183.11a6.78,6.78,0,0,0-1.94-5,7,7,0,0,0-5.16-2.12,9.88,9.88,0,0,0-7.19,3.14,9.34,9.34,0,0,0-3.14,7,6.55,6.55,0,0,0,2,5.07,6.88,6.88,0,0,0,5.16,2,10.15,10.15,0,0,0,7.2-3,10,10,0,0,0,3-7.1Z"/><path class="cls-2" d="M501.23,159.33a4,4,0,0,0-3,1.19,4.45,4.45,0,0,0-1.66,2.68,3.46,3.46,0,0,0,.65,2.86,3.22,3.22,0,0,0,2.58,1.1H518l-4.33,25a14.88,14.88,0,0,0-.19,1.75,8.17,8.17,0,0,0,2.4,6,8.27,8.27,0,0,0,6.09,2.4,11.2,11.2,0,0,0,7.65-3,11.92,11.92,0,0,0,4.24-7.1l4.33-25h18.17a4.8,4.8,0,0,0,3-1.1A4.29,4.29,0,0,0,561,163.2a2.8,2.8,0,0,0-.65-2.68,3,3,0,0,0-2.58-1.19Z"/><path class="cls-2" d="M635.11,166.06a4.89,4.89,0,0,0,1.66-2.86,3.07,3.07,0,0,0-.65-2.68,3,3,0,0,0-2.58-1.19h-39c-6.18,0-11.43.92-15.67,2.85q-6.78,2.91-7.75,8.3l-3.41,19.73a7.37,7.37,0,0,0-.19,1.39c0,3.22,1.85,5.62,5.63,7.37,3.5,1.66,8.11,2.49,13.92,2.49h39.1a5.07,5.07,0,0,0,4.61-4,3.14,3.14,0,0,0-3.23-3.88H595.74a8.8,8.8,0,0,1-5.35-1.56,5,5,0,0,1-2-4.06,2.9,2.9,0,0,1,.09-.92l2.31-13.46a7.57,7.57,0,0,1,3.32-4.61,11,11,0,0,1,6.18-1.85h31.9a4.75,4.75,0,0,0,3-1.1Z"/><path class="cls-2" d="M705.64,158.5a11.21,11.21,0,0,0-7.65,3,11.71,11.71,0,0,0-4.24,7.1l-1.38,7.84h-24l1.39-7.84a10.57,10.57,0,0,0,.18-1.75,8.19,8.19,0,0,0-8.48-8.39,11.34,11.34,0,0,0-7.65,3,11.73,11.73,0,0,0-4.25,7.1l-4.14,23.51a11.65,11.65,0,0,0-.19,1.75,8.21,8.21,0,0,0,8.48,8.39,11.56,11.56,0,0,0,7.66-2.95,12.79,12.79,0,0,0,4.24-7.19l1.38-7.84h24l-1.29,7.84a6.44,6.44,0,0,0-.27,1.75,7.91,7.91,0,0,0,2.49,6,8,8,0,0,0,6,2.4,11.74,11.74,0,0,0,7.74-2.95,12,12,0,0,0,4.15-7.19L714,168.64a9.82,9.82,0,0,0,.1-1.75,8.21,8.21,0,0,0-2.4-6,8.31,8.31,0,0,0-6.09-2.39Z"/></g></g></svg>