<?xml version="1.0" encoding="utf-8"?>
<!-- Generator: Adobe Illustrator 25.4.1, SVG Export Plug-In . SVG Version: 6.00 Build 0)  -->
<svg version="1.1" id="Layer_1" xmlns="http://www.w3.org/2000/svg" xmlns:xlink="http://www.w3.org/1999/xlink" x="0px" y="0px"
	 viewBox="0 0 360.4 260.3" style="enable-background:new 0 0 360.4 260.3;" xml:space="preserve">
<style type="text/css">
	.st0{fill:#FFFFFF;}
</style>
<g id="Layer_2_00000147926357061788790410000010868089272419165093_">
	<g id="Layer_1-2">
		<path d="M359.9,0.7C359.5,0.3,359,0,358.4,0h-28.2l-139,13.9c-0.3,0-0.6,0-0.8-0.1l-0.4-0.1c-3-1.1-6.2-1.8-9.4-2l-0.4,0.1
			l-0.5-0.1c-3.2,0.2-6.4,0.9-9.5,2l-0.5,0.1c-0.3,0.1-0.6,0.1-0.8,0.1L29.8,0H2C1.5,0,0.9,0.3,0.6,0.7C0.1,1.1-0.1,1.7,0,2.3
			l6.9,44.8c0.1,1,1,1.8,2,1.8h14.2c0.9-0.1,1.8,0.5,2,1.4c0,0.1,0,0.2,0,0.3l6.3,60.3c0,0.9,0.7,1.7,1.6,1.8c0.1,0,0.3,0,0.4,0
			l7.9-0.1c0.7,0,1.3,0.4,1.7,0.9c0.4,0.6,0.5,1.3,0.2,1.9l-5.5,13c-0.3,0.6-0.4,1.1-0.5,1.8c-0.3,1.2-0.2,2.4,0.3,3.5
			c0.6,1.7,1.8,3.1,3.4,4l45,24.2c13,7.5,20.7,13.8,23,19.1c0.3,0.5,0.3,1.1,0,1.7c-2,4.4-3.5,9.1-4.4,13.8
			c-1.4,7.1-0.7,12.9,1.9,17.2c3,5.1,7.9,7.8,14.8,8.1h1.4c6.5,0,11.1-2.1,13.9-6.5c2.1-3.4,2.8-7.6,1.9-12.9
			c-0.9-4.7-2.4-9.4-4.5-13.8c-0.4-0.7-0.2-1.6,0.4-2.2c0.5-0.6,1.4-0.9,2.1-0.6c4.3,1.5,9,3.3,14.2,5.5c9.3,4,14.6,7.7,15.9,11.2
			c0.5,1.3,0,3.4-1.4,6.4l-0.8,1.8c-7.6,16.7-9.9,29.1-6.5,37.1c2.1,5,6.4,8.6,12.7,10.9c2.5,0.9,5.2,1.4,7.8,1.4
			c2.5,0,5-0.4,7.4-1.1l1.6-0.5c2.3-0.6,4.5-1.5,6.6-2.7c2.7-1.5,4.9-3.8,6.2-6.6c3.2-7,1-18.7-6.6-35.2l-0.1-0.5l-0.4-0.5l-0.1-0.1
			c-1.8-2.6-2.2-6-1.2-9c1.5-4.8,6.6-9,15.3-12.6c5.9-2.4,10.6-4.1,14.2-5.3c0.8-0.3,1.6-0.1,2.1,0.6c0.5,0.6,0.7,1.4,0.4,2.1
			c-2.1,4.4-3.6,9-4.5,13.7c-0.8,5.2-0.2,9.4,1.9,12.8c2.9,4.3,7.5,6.5,14,6.5h1.4c6.9-0.4,11.8-3,14.9-8.1
			c2.6-4.3,3.2-10.1,1.9-17.2c-0.9-4.8-2.4-9.4-4.4-13.8c-0.3-0.5-0.3-1.1,0-1.7c2.4-5.2,10.1-11.6,23-19.1l45-24.3
			c1.6-0.9,2.8-2.3,3.4-4c0.4-1.1,0.5-2.3,0.3-3.5c-0.1-0.6-0.3-1.2-0.5-1.8l-6.1-14.1c-0.3-0.6-0.2-1.3,0.2-1.8
			c0.3-0.6,0.8-1,1.5-1l9.1-0.8c1-0.1,1.7-0.8,1.8-1.8l8.5-56.9c0-0.9,0.8-1.7,1.7-1.7l13.6-1.3c0.9,0,1.7-0.7,1.8-1.7l7.9-44.9
			C360.5,1.8,360.3,1.2,359.9,0.7z M188,54.9l12.1,29.2c0.4,0.9,0,1.9-0.8,2.4L180.1,99c-0.7,0.5-1.5,0.5-2.2,0l-17.5-11.3
			c-0.9-0.4-1.2-1.5-0.8-2.3c0,0,0-0.1,0.1-0.1l12.2-29.8c0.1-0.2,0.3-0.5,0.5-0.6c2.2-2.1,4.6-3.9,7.2-5.4c0.7-0.4,1.5-0.4,2.2,0
			c2.1,1.5,4.1,3.1,6,4.9C187.8,54.4,187.9,54.7,188,54.9z M42.8,22.9c-0.5-0.4-1.2-0.4-1.8-0.2l-15.4,5.1c-0.6,0.1-1.2,0-1.8-0.3
			c-0.5-0.3-0.8-0.8-0.9-1.4l-0.6-5c-0.3-0.9,0.3-1.9,1.2-2.1c0.1,0,0.2,0,0.3-0.1l6.1-1.7c0.2-0.1,0.5-0.1,0.7-0.1l139.6,15
			c0.3,0,0.5,0,0.7-0.1l1.7-0.5c2-0.6,4.1-0.8,6.2-0.8c1.5,0,3.1,0.2,4.6,0.5h-3.1c-10,0-17.7,3.3-23.3,10l-0.7,0.9
			c-0.1,0.2-0.3,0.4-0.4,0.6l-10.9,31.7c-0.2,0.6-0.7,1.1-1.3,1.3c-0.6,0.2-1.2,0.1-1.8-0.2L85,38.5c-1.2-0.7-2.5-1.1-3.9-1.1
			c-3-0.2-5.7,1.6-6.6,4.4l-22,52c-0.4,0.8-1.2,1.3-2.1,1.2c-1,0-1.8-0.8-1.8-1.8c0,0,0,0,0-0.1l-5-68.8
			C43.6,23.8,43.3,23.3,42.8,22.9z M337.8,21.1l-0.6,4.3c-0.1,0.6-0.5,1.2-1,1.5c-0.5,0.3-1.2,0.3-1.8,0.1l-10.9-4.2
			c-0.6-0.3-1.3-0.2-1.8,0.2c-0.6,0.3-0.9,0.8-1,1.5l-8.9,68.8c-0.1,1-0.9,1.7-1.9,1.8l-2.4,0.3c-0.9,0.1-1.7-0.4-2-1.2l-22.1-52.2
			c-1-2.8-3.8-4.6-6.7-4.4c-1.4,0-2.7,0.4-3.9,1.1l-55,35.9c-0.5,0.4-1.2,0.5-1.8,0.3c-0.6-0.2-1.1-0.7-1.3-1.3l-10.6-30.6
			c-0.1-0.2-0.2-0.4-0.3-0.6l-0.8-0.9c-1.8-2.1-3.8-4-6.1-5.5c-0.7-0.4-1.1-1.3-0.9-2.1c0.1-0.9,0.9-1.5,1.8-1.6l131.6-14.9
			c0.2,0,0.5,0,0.7,0.1l6.1,1.7c1,0.1,1.7,1.1,1.6,2.1C337.9,21,337.9,21.1,337.8,21.1L337.8,21.1z"/>
		<path class="st0" d="M274.5,41.9c-0.1-0.4-0.4-0.5-0.6-0.2l-63.3,41.2c-0.7,0.4-1,1.2-0.7,2l7.5,21.4c0.2,0.8,0.9,1.3,1.7,1.2
			l78-7.4c0.5-0.1,1-0.4,1.3-0.8c0.3-0.5,0.3-1.1,0.1-1.6L274.5,41.9z"/>
		<path class="st0" d="M144.5,86c0.3-0.7,0-1.6-0.6-2L78.8,41.7c-0.3-0.3-0.5-0.2-0.6,0.2L54.4,97.6c-0.2,0.5-0.2,1,0.1,1.5
			c0.3,0.5,0.8,0.8,1.3,0.8l79.9,7.6c0.8,0.1,1.6-0.4,1.8-1.2L144.5,86L144.5,86z"/>
		<path class="st0" d="M41.4,128.4c-0.1,0.3-0.1,0.5,0.2,0.6l45.1,24.2c13.4,7.8,21.8,14.8,25.3,21.2c1.7,3.1,2,5.5,1.1,7.2
			l-1.9,4.7c-1.3,3.3-2.3,6.8-2.8,10.3c-1.5,10.1,2.1,15.3,10.7,15.8s11.9-4,10-12.9c-0.9-3.7-2.2-7.4-3.8-10.9
			c-2-4.3-3.3-7.2-3.8-8.5c-1.6-4.1-0.3-6.1,3.9-5.9c4.4,0.2,12.9,3,25.5,8.3c12.1,5.2,18.7,10.7,20.1,16.6c0.5,2.2,0.3,4.5-0.5,6.6
			c-0.5,1.3-1.3,3-2.3,5.2c-6.2,13.4-8.6,23.1-7.2,29.5c0.9,4.1,3.8,7.2,8.7,9.1c3.8,1.5,8.1,1.6,12,0.3c3.1-1,5.1-1.7,5.8-1.9
			c2-0.9,3.5-2.5,4.3-4.4c1.9-5.3-0.3-14.9-6.7-29l-0.1-0.2c-2.3-3.5-3.2-7.7-2.7-11.9c1-8.2,7.6-14.8,19.9-19.8
			c12.6-5.2,21.2-7.9,25.5-8.1c4-0.3,5.2,1.7,3.8,5.7c-0.5,1.3-1.8,4.1-3.8,8.5c-1.6,3.5-2.9,7.1-3.8,10.9c-2,8.9,1.3,13.3,9.9,12.9
			s12.1-5.7,10.7-15.8c-0.6-3.5-1.5-7-2.9-10.3l-1.9-4.7c-0.3-0.6-0.5-1.2-0.5-1.9c0-1.9,0.5-3.8,1.6-5.3
			c3.4-6.4,11.8-13.5,25.3-21.2l45-24.3c0.3-0.1,0.3-0.3,0.2-0.6l-10.2-24.1c-0.2-0.7-0.9-1.2-1.7-1l-82.8,7.7
			c-0.8,0.1-1.5-0.3-1.8-1.1l-7.6-22.4c-0.1-0.5-0.6-0.9-1.1-1c-0.5-0.2-1-0.1-1.4,0.2l-21.5,13.9c-0.7,0.3-1.1,1.1-0.8,1.9
			c0.1,0.2,0.2,0.3,0.3,0.4l2.1,3.5c0.5,0.7,0.3,1.6-0.3,2.1c-0.5,0.5-1.4,0.6-2,0.2l-32.8-20.9c-0.4-0.3-1-0.4-1.5-0.2
			c-0.5,0.1-0.9,0.5-1,1l-7.4,21.3c-0.2,0.8-1,1.2-1.8,1.1l-84.7-8c-0.8-0.1-1.5,0.3-1.8,1L41.4,128.4z"/>
		<path class="st0" d="M190.9,48l0.3,0.5l14.5,35.2c0.3,0.4,0.6,0.8,1.1,1c0.5,0.2,1,0.1,1.5-0.2l0.1-0.1c0.7-0.4,1-1.3,0.6-2
			l-13.5-39.4l-0.2-0.2c-3.9-4.9-9.8-7.7-16-7.7h-0.7c-2.5-0.1-5.1,0.2-7.6,0.8c-4.5,0.9-8.5,3.3-11.5,6.8l-0.2,0.2l-14,40.4
			c-0.3,0.8,0,1.6,0.7,2l0.1,0.1c0.5,0.3,1,0.3,1.5,0.2c0.5-0.2,0.8-0.5,1-1L163.4,49c0.1-0.1,0.2-0.3,0.4-0.5
			c3.2-3.6,7.9-7.1,14.2-10.3c0.5,0,2,0.9,4.9,2.9C185.8,43,188.5,45.4,190.9,48L190.9,48z"/>
		<path class="st0" d="M349.3,4.7c-0.3-0.4-0.8-0.6-1.3-0.5h-20L187.7,18.1c-0.1,0.1-0.3,0.1-0.6,0c-1.8-0.5-3.3-1-4.5-1.4
			c-1.7-0.5-3.4-0.8-5.2-0.8c-1.8,0-3.6,0.3-5.3,0.8c-1.6,0.6-3.2,1-4.8,1.4c-0.1,0.1-0.3,0.1-0.6,0L26.8,4.2H6.9
			c-0.5,0-1,0.2-1.3,0.6C5.3,5.1,5.2,5.6,5.3,6.1l4.9,31.8c0,0.9,0.8,1.5,1.6,1.5c0,0,0,0,0,0h15.1c0.8-0.1,1.6,0.5,1.7,1.4
			c0,0.1,0,0.1,0,0.2l6.3,60.7c0,0.9,0.8,1.6,1.7,1.6c0,0,0.1,0,0.1,0l14.5-0.2c0.7,0,1.2-0.4,1.5-1l0.1-0.1
			c0.2-0.5,0.2-1.1-0.1-1.6c-0.3-0.5-0.8-0.8-1.4-0.8l-10-0.9c-0.8,0-1.6-0.6-1.6-1.5c0,0,0-0.1,0-0.1l-4.7-66.5
			c0-0.5-0.3-1-0.7-1.3c-0.4-0.3-1-0.4-1.5-0.2l-15.8,5.1c-0.5,0.2-1,0.1-1.4-0.2c-0.5-0.2-0.8-0.7-0.8-1.2L12,13.1
			c-0.2-0.8,0.3-1.6,1.1-1.8c0,0,0,0,0.1,0l13.5-3.6c0.2-0.1,0.4-0.1,0.6-0.1l139.6,14.9c0.3,0,0.6,0,0.6-0.1
			c6.3-1.8,12.9-1.5,19,0.7l0.4,0.1c0.2,0.1,0.5,0.1,0.7,0.1L327.4,7.6c0.2,0,0.4,0,0.6,0.1l13.4,3.6c0.8,0.1,1.4,0.9,1.3,1.7
			c0,0,0,0.1,0,0.1l-2.7,19.5c-0.1,0.5-0.4,1-0.8,1.2c-0.4,0.3-1,0.3-1.5,0.1l-11.6-4.5c-0.5-0.2-1-0.1-1.5,0.2
			c-0.5,0.2-0.8,0.7-0.8,1.2l-8.6,66.3c-0.1,0.8-0.7,1.5-1.6,1.5l-12.3,1.1c-0.5,0.1-1,0.4-1.3,0.8c-0.3,0.5-0.3,1.1-0.1,1.6
			c0.3,0.7,1,1.1,1.8,1l14.8-1.4c0.8,0,1.5-0.7,1.5-1.5l8.6-57.3c0.1-0.8,0.7-1.4,1.5-1.5l14.2-1.4c0.8,0,1.4-0.6,1.6-1.4l5.7-32.5
			C349.8,5.6,349.6,5,349.3,4.7L349.3,4.7z"/>
	</g>
</g>
</svg>
